<mxfile host="app.diagrams.net" modified="2024-07-18T14:19:06.161Z" agent="Mozilla/5.0 (Windows NT 10.0; Win64; x64) AppleWebKit/537.36 (KHTML, like Gecko) Chrome/126.0.0.0 Safari/537.36" etag="2HeZUBQ3fKraPY97ZpPe" version="24.7.1" type="github">
  <diagram name="第 1 页" id="t5rmYULxfnpGZIQc0kC4">
    <mxGraphModel dx="1221" dy="759" grid="0" gridSize="10" guides="1" tooltips="1" connect="1" arrows="1" fold="1" page="1" pageScale="1" pageWidth="827" pageHeight="1169" math="0" shadow="0">
      <root>
        <mxCell id="0" />
        <mxCell id="1" parent="0" />
        <mxCell id="8cU8IfGOEaAC18SAXIAc-3" value="什么是 Quartz？&lt;div&gt;Quartz 是一个基于 Java 实现的任务调度框架。&lt;/div&gt;" style="rounded=1;whiteSpace=wrap;html=1;" parent="1" vertex="1">
          <mxGeometry x="20" y="68" width="787" height="68" as="geometry" />
        </mxCell>
        <mxCell id="8cU8IfGOEaAC18SAXIAc-5" value="&lt;font style=&quot;font-size: 12px;&quot;&gt;任务 Job：实际执行的任务，定义 execute 方法&lt;/font&gt;" style="rounded=1;whiteSpace=wrap;html=1;" parent="1" vertex="1">
          <mxGeometry x="8" y="287" width="150" height="58" as="geometry" />
        </mxCell>
        <mxCell id="8cU8IfGOEaAC18SAXIAc-6" value="&lt;span style=&quot;color: rgb(0, 0, 0); font-family: Helvetica; font-size: 15px; font-style: normal; font-variant-ligatures: normal; font-variant-caps: normal; font-weight: 400; letter-spacing: normal; orphans: 2; text-align: center; text-indent: 0px; text-transform: none; widows: 2; word-spacing: 0px; -webkit-text-stroke-width: 0px; white-space: normal; background-color: rgb(251, 251, 251); text-decoration-thickness: initial; text-decoration-style: initial; text-decoration-color: initial; display: inline !important; float: none;&quot;&gt;Quartz 学习&lt;/span&gt;" style="text;whiteSpace=wrap;html=1;" parent="1" vertex="1">
          <mxGeometry x="359.99668701171873" y="18.00331298828125" width="107" height="40" as="geometry" />
        </mxCell>
        <mxCell id="8cU8IfGOEaAC18SAXIAc-7" value="核心概念" style="text;html=1;align=center;verticalAlign=middle;resizable=0;points=[];autosize=1;strokeColor=none;fillColor=none;" parent="1" vertex="1">
          <mxGeometry x="13" y="187" width="66" height="26" as="geometry" />
        </mxCell>
        <mxCell id="8cU8IfGOEaAC18SAXIAc-20" style="edgeStyle=orthogonalEdgeStyle;rounded=0;orthogonalLoop=1;jettySize=auto;html=1;entryX=0.75;entryY=0;entryDx=0;entryDy=0;" parent="1" source="8cU8IfGOEaAC18SAXIAc-12" target="8cU8IfGOEaAC18SAXIAc-18" edge="1">
          <mxGeometry relative="1" as="geometry" />
        </mxCell>
        <mxCell id="8cU8IfGOEaAC18SAXIAc-21" style="edgeStyle=orthogonalEdgeStyle;rounded=0;orthogonalLoop=1;jettySize=auto;html=1;" parent="1" source="8cU8IfGOEaAC18SAXIAc-12" target="8cU8IfGOEaAC18SAXIAc-19" edge="1">
          <mxGeometry relative="1" as="geometry" />
        </mxCell>
        <mxCell id="8cU8IfGOEaAC18SAXIAc-79" style="edgeStyle=orthogonalEdgeStyle;rounded=0;orthogonalLoop=1;jettySize=auto;html=1;" parent="1" source="8cU8IfGOEaAC18SAXIAc-12" edge="1">
          <mxGeometry relative="1" as="geometry">
            <mxPoint x="305.16668701171875" y="408.16668701171875" as="targetPoint" />
            <Array as="points">
              <mxPoint x="429" y="377" />
              <mxPoint x="305" y="377" />
            </Array>
          </mxGeometry>
        </mxCell>
        <mxCell id="8cU8IfGOEaAC18SAXIAc-96" value="" style="edgeStyle=orthogonalEdgeStyle;rounded=0;orthogonalLoop=1;jettySize=auto;html=1;" parent="1" source="8cU8IfGOEaAC18SAXIAc-12" target="8cU8IfGOEaAC18SAXIAc-95" edge="1">
          <mxGeometry relative="1" as="geometry" />
        </mxCell>
        <mxCell id="8cU8IfGOEaAC18SAXIAc-12" value="&lt;font style=&quot;font-size: 12px;&quot;&gt;触发器 Trigger：是执行任务的触发器&lt;/font&gt;" style="rounded=1;whiteSpace=wrap;html=1;" parent="1" vertex="1">
          <mxGeometry x="382.5" y="311.25" width="205" height="52.5" as="geometry" />
        </mxCell>
        <mxCell id="8cU8IfGOEaAC18SAXIAc-15" value="调度器 Scheduler：任务调度器，执行任务" style="rounded=1;whiteSpace=wrap;html=1;" parent="1" vertex="1">
          <mxGeometry x="42" y="554.5" width="166" height="65" as="geometry" />
        </mxCell>
        <mxCell id="8cU8IfGOEaAC18SAXIAc-18" value="SimpleTrigger" style="rounded=1;whiteSpace=wrap;html=1;" parent="1" vertex="1">
          <mxGeometry x="329.5" y="413.5" width="120" height="60" as="geometry" />
        </mxCell>
        <mxCell id="8cU8IfGOEaAC18SAXIAc-19" value="CronTrigger" style="rounded=1;whiteSpace=wrap;html=1;" parent="1" vertex="1">
          <mxGeometry x="501.5" y="413.5" width="120" height="60" as="geometry" />
        </mxCell>
        <mxCell id="8cU8IfGOEaAC18SAXIAc-24" value="集群设计" style="text;html=1;align=center;verticalAlign=middle;resizable=0;points=[];autosize=1;strokeColor=none;fillColor=none;" parent="1" vertex="1">
          <mxGeometry x="20.5" y="666" width="66" height="26" as="geometry" />
        </mxCell>
        <mxCell id="8cU8IfGOEaAC18SAXIAc-26" value="" style="sketch=0;pointerEvents=1;shadow=0;dashed=0;html=1;strokeColor=none;fillColor=#434445;aspect=fixed;labelPosition=center;verticalLabelPosition=bottom;verticalAlign=top;align=center;outlineConnect=0;shape=mxgraph.vvd.laptop;" parent="1" vertex="1">
          <mxGeometry x="51.5" y="774.3299999999999" width="50" height="36" as="geometry" />
        </mxCell>
        <mxCell id="8cU8IfGOEaAC18SAXIAc-27" value="" style="sketch=0;pointerEvents=1;shadow=0;dashed=0;html=1;strokeColor=none;fillColor=#434445;aspect=fixed;labelPosition=center;verticalLabelPosition=bottom;verticalAlign=top;align=center;outlineConnect=0;shape=mxgraph.vvd.laptop;" parent="1" vertex="1">
          <mxGeometry x="344.5" y="774.3299999999999" width="50" height="36" as="geometry" />
        </mxCell>
        <mxCell id="8cU8IfGOEaAC18SAXIAc-28" value="" style="sketch=0;pointerEvents=1;shadow=0;dashed=0;html=1;strokeColor=none;fillColor=#434445;aspect=fixed;labelPosition=center;verticalLabelPosition=bottom;verticalAlign=top;align=center;outlineConnect=0;shape=mxgraph.vvd.laptop;" parent="1" vertex="1">
          <mxGeometry x="198.5" y="674.3299999999999" width="50" height="36" as="geometry" />
        </mxCell>
        <mxCell id="8cU8IfGOEaAC18SAXIAc-29" value="" style="sketch=0;pointerEvents=1;shadow=0;dashed=0;html=1;strokeColor=none;fillColor=#434445;aspect=fixed;labelPosition=center;verticalLabelPosition=bottom;verticalAlign=top;align=center;outlineConnect=0;shape=mxgraph.vvd.storage;" parent="1" vertex="1">
          <mxGeometry x="204.75" y="767.3299999999999" width="37.5" height="50" as="geometry" />
        </mxCell>
        <mxCell id="8cU8IfGOEaAC18SAXIAc-30" value="" style="line;strokeWidth=1;rotatable=0;dashed=0;labelPosition=right;align=left;verticalAlign=middle;spacingTop=0;spacingLeft=6;points=[];portConstraint=eastwest;" parent="1" vertex="1">
          <mxGeometry x="96.5" y="787.3299999999999" width="106" height="10" as="geometry" />
        </mxCell>
        <mxCell id="8cU8IfGOEaAC18SAXIAc-31" value="" style="endArrow=none;html=1;rounded=0;" parent="1" edge="1">
          <mxGeometry relative="1" as="geometry">
            <mxPoint x="239.5" y="793.3299999999999" as="sourcePoint" />
            <mxPoint x="343.5" y="793" as="targetPoint" />
          </mxGeometry>
        </mxCell>
        <mxCell id="8cU8IfGOEaAC18SAXIAc-34" value="" style="endArrow=none;html=1;rounded=0;" parent="1" source="8cU8IfGOEaAC18SAXIAc-28" target="8cU8IfGOEaAC18SAXIAc-29" edge="1">
          <mxGeometry relative="1" as="geometry">
            <mxPoint x="222.5" y="710.3299999999999" as="sourcePoint" />
            <mxPoint x="225.5" y="766.3299999999999" as="targetPoint" />
          </mxGeometry>
        </mxCell>
        <mxCell id="8cU8IfGOEaAC18SAXIAc-35" value="Database" style="text;html=1;align=center;verticalAlign=middle;resizable=0;points=[];autosize=1;strokeColor=none;fillColor=none;" parent="1" vertex="1">
          <mxGeometry x="189" y="824.3299999999999" width="69" height="26" as="geometry" />
        </mxCell>
        <mxCell id="8cU8IfGOEaAC18SAXIAc-36" value="Quartz 节点1" style="text;html=1;align=center;verticalAlign=middle;resizable=0;points=[];autosize=1;strokeColor=none;fillColor=none;" parent="1" vertex="1">
          <mxGeometry x="32.5" y="819.3299999999999" width="88" height="26" as="geometry" />
        </mxCell>
        <mxCell id="8cU8IfGOEaAC18SAXIAc-37" value="&lt;span style=&quot;color: rgb(0, 0, 0); font-family: Helvetica; font-size: 12px; font-style: normal; font-variant-ligatures: normal; font-variant-caps: normal; font-weight: 400; letter-spacing: normal; orphans: 2; text-align: center; text-indent: 0px; text-transform: none; widows: 2; word-spacing: 0px; -webkit-text-stroke-width: 0px; white-space: nowrap; background-color: rgb(251, 251, 251); text-decoration-thickness: initial; text-decoration-style: initial; text-decoration-color: initial; display: inline !important; float: none;&quot;&gt;Quartz 节点2&lt;/span&gt;" style="text;whiteSpace=wrap;html=1;" parent="1" vertex="1">
          <mxGeometry x="253.49668701171873" y="674.3266870117187" width="98" height="36" as="geometry" />
        </mxCell>
        <mxCell id="8cU8IfGOEaAC18SAXIAc-38" value="Quartz 节点3" style="text;html=1;align=center;verticalAlign=middle;resizable=0;points=[];autosize=1;strokeColor=none;fillColor=none;" parent="1" vertex="1">
          <mxGeometry x="335.5" y="822" width="88" height="26" as="geometry" />
        </mxCell>
        <mxCell id="8cU8IfGOEaAC18SAXIAc-39" value="&lt;div&gt;1. Quartz 集群中的每个节点都是一个独立的 Quartz 应用，并管理其他节点。&lt;div&gt;2. 需要对每个节点都进行启动或暂停，不像服务器集群，独立的 Quartz 节点并不与其它节点通信。&lt;/div&gt;&lt;div&gt;3. Quartz 节点是通过数据库来感知其它节点的。&lt;/div&gt;&lt;div&gt;4. Quartz 节点定时 15s 同步一次心跳到数据库。&lt;/div&gt;&lt;div&gt;5. Quartz 通过数据库行锁来解决分布式环境下的一致性问题。&lt;/div&gt;&lt;/div&gt;" style="whiteSpace=wrap;html=1;" parent="1" vertex="1">
          <mxGeometry x="409.5" y="663" width="402" height="139.34" as="geometry" />
        </mxCell>
        <mxCell id="8cU8IfGOEaAC18SAXIAc-40" value="特点" style="text;html=1;align=center;verticalAlign=middle;resizable=0;points=[];autosize=1;strokeColor=none;fillColor=none;" parent="1" vertex="1">
          <mxGeometry x="358.5" y="666" width="42" height="26" as="geometry" />
        </mxCell>
        <mxCell id="8cU8IfGOEaAC18SAXIAc-58" value="" style="edgeStyle=orthogonalEdgeStyle;rounded=0;orthogonalLoop=1;jettySize=auto;html=1;" parent="1" source="8cU8IfGOEaAC18SAXIAc-41" target="8cU8IfGOEaAC18SAXIAc-43" edge="1">
          <mxGeometry relative="1" as="geometry" />
        </mxCell>
        <mxCell id="8cU8IfGOEaAC18SAXIAc-41" value="开始" style="rounded=1;whiteSpace=wrap;html=1;" parent="1" vertex="1">
          <mxGeometry x="347" y="862" width="103" height="41" as="geometry" />
        </mxCell>
        <mxCell id="8cU8IfGOEaAC18SAXIAc-45" style="edgeStyle=orthogonalEdgeStyle;rounded=0;orthogonalLoop=1;jettySize=auto;html=1;entryX=0.5;entryY=0;entryDx=0;entryDy=0;" parent="1" source="8cU8IfGOEaAC18SAXIAc-43" target="8cU8IfGOEaAC18SAXIAc-44" edge="1">
          <mxGeometry relative="1" as="geometry" />
        </mxCell>
        <mxCell id="8cU8IfGOEaAC18SAXIAc-49" style="edgeStyle=orthogonalEdgeStyle;rounded=0;orthogonalLoop=1;jettySize=auto;html=1;entryX=0.5;entryY=0;entryDx=0;entryDy=0;" parent="1" source="8cU8IfGOEaAC18SAXIAc-43" target="8cU8IfGOEaAC18SAXIAc-47" edge="1">
          <mxGeometry relative="1" as="geometry" />
        </mxCell>
        <mxCell id="8cU8IfGOEaAC18SAXIAc-43" value="相应行锁是否被其它线程占用" style="rhombus;whiteSpace=wrap;html=1;" parent="1" vertex="1">
          <mxGeometry x="262" y="944" width="273" height="80" as="geometry" />
        </mxCell>
        <mxCell id="8cU8IfGOEaAC18SAXIAc-44" value="等待锁被释放" style="rounded=1;whiteSpace=wrap;html=1;" parent="1" vertex="1">
          <mxGeometry x="547.5" y="1031" width="120" height="60" as="geometry" />
        </mxCell>
        <mxCell id="8cU8IfGOEaAC18SAXIAc-46" value="是" style="text;html=1;align=center;verticalAlign=middle;resizable=0;points=[];autosize=1;strokeColor=none;fillColor=none;" parent="1" vertex="1">
          <mxGeometry x="569.5" y="957" width="30" height="26" as="geometry" />
        </mxCell>
        <mxCell id="8cU8IfGOEaAC18SAXIAc-53" style="edgeStyle=orthogonalEdgeStyle;rounded=0;orthogonalLoop=1;jettySize=auto;html=1;entryX=0.5;entryY=0;entryDx=0;entryDy=0;" parent="1" source="8cU8IfGOEaAC18SAXIAc-47" target="8cU8IfGOEaAC18SAXIAc-51" edge="1">
          <mxGeometry relative="1" as="geometry" />
        </mxCell>
        <mxCell id="8cU8IfGOEaAC18SAXIAc-47" value="获取锁" style="rounded=1;whiteSpace=wrap;html=1;" parent="1" vertex="1">
          <mxGeometry x="338.5" y="1066" width="120" height="60" as="geometry" />
        </mxCell>
        <mxCell id="8cU8IfGOEaAC18SAXIAc-50" value="否" style="text;html=1;align=center;verticalAlign=middle;resizable=0;points=[];autosize=1;strokeColor=none;fillColor=none;" parent="1" vertex="1">
          <mxGeometry x="400.5" y="1033" width="30" height="26" as="geometry" />
        </mxCell>
        <mxCell id="8cU8IfGOEaAC18SAXIAc-55" style="edgeStyle=orthogonalEdgeStyle;rounded=0;orthogonalLoop=1;jettySize=auto;html=1;entryX=1;entryY=0.5;entryDx=0;entryDy=0;" parent="1" source="8cU8IfGOEaAC18SAXIAc-51" target="8cU8IfGOEaAC18SAXIAc-54" edge="1">
          <mxGeometry relative="1" as="geometry" />
        </mxCell>
        <mxCell id="8cU8IfGOEaAC18SAXIAc-51" value="完成业务操作" style="rounded=1;whiteSpace=wrap;html=1;" parent="1" vertex="1">
          <mxGeometry x="338.5" y="1163" width="120" height="60" as="geometry" />
        </mxCell>
        <mxCell id="8cU8IfGOEaAC18SAXIAc-57" value="" style="edgeStyle=orthogonalEdgeStyle;rounded=0;orthogonalLoop=1;jettySize=auto;html=1;" parent="1" source="8cU8IfGOEaAC18SAXIAc-54" target="8cU8IfGOEaAC18SAXIAc-56" edge="1">
          <mxGeometry relative="1" as="geometry" />
        </mxCell>
        <mxCell id="8cU8IfGOEaAC18SAXIAc-54" value="释放相应行锁" style="rounded=1;whiteSpace=wrap;html=1;" parent="1" vertex="1">
          <mxGeometry x="154.5" y="1163" width="120" height="60" as="geometry" />
        </mxCell>
        <mxCell id="8cU8IfGOEaAC18SAXIAc-56" value="结束" style="rounded=1;whiteSpace=wrap;html=1;" parent="1" vertex="1">
          <mxGeometry x="154.5" y="1064" width="120" height="60" as="geometry" />
        </mxCell>
        <mxCell id="8cU8IfGOEaAC18SAXIAc-59" value="" style="endArrow=classic;html=1;rounded=0;entryX=1;entryY=0.5;entryDx=0;entryDy=0;" parent="1" source="8cU8IfGOEaAC18SAXIAc-39" target="8cU8IfGOEaAC18SAXIAc-41" edge="1">
          <mxGeometry width="50" height="50" relative="1" as="geometry">
            <mxPoint x="494.5" y="874.3299999999999" as="sourcePoint" />
            <mxPoint x="544.5" y="824.3299999999999" as="targetPoint" />
          </mxGeometry>
        </mxCell>
        <mxCell id="8cU8IfGOEaAC18SAXIAc-60" value="一致性问题解决流程" style="text;html=1;align=center;verticalAlign=middle;resizable=0;points=[];autosize=1;strokeColor=none;fillColor=none;" parent="1" vertex="1">
          <mxGeometry x="493.5" y="836" width="126" height="26" as="geometry" />
        </mxCell>
        <mxCell id="8cU8IfGOEaAC18SAXIAc-61" value="阿里开源 easySchedule：管理Quartz 集群" style="rounded=1;whiteSpace=wrap;html=1;" parent="1" vertex="1">
          <mxGeometry x="14.5" y="866" width="152" height="85" as="geometry" />
        </mxCell>
        <mxCell id="8cU8IfGOEaAC18SAXIAc-92" value="" style="edgeStyle=orthogonalEdgeStyle;rounded=0;orthogonalLoop=1;jettySize=auto;html=1;" parent="1" source="8cU8IfGOEaAC18SAXIAc-62" target="8cU8IfGOEaAC18SAXIAc-68" edge="1">
          <mxGeometry relative="1" as="geometry" />
        </mxCell>
        <mxCell id="8cU8IfGOEaAC18SAXIAc-62" value="Calendar" style="rounded=1;whiteSpace=wrap;html=1;" parent="1" vertex="1">
          <mxGeometry x="376" y="207" width="120" height="60" as="geometry" />
        </mxCell>
        <mxCell id="8cU8IfGOEaAC18SAXIAc-64" value="" style="endArrow=none;html=1;rounded=0;" parent="1" edge="1">
          <mxGeometry relative="1" as="geometry">
            <mxPoint x="436" y="270" as="sourcePoint" />
            <mxPoint x="472" y="306" as="targetPoint" />
          </mxGeometry>
        </mxCell>
        <mxCell id="8cU8IfGOEaAC18SAXIAc-65" value="1" style="text;html=1;align=center;verticalAlign=middle;resizable=0;points=[];autosize=1;strokeColor=none;fillColor=none;" parent="1" vertex="1">
          <mxGeometry x="481" y="287" width="25" height="26" as="geometry" />
        </mxCell>
        <mxCell id="8cU8IfGOEaAC18SAXIAc-67" value="n" style="text;html=1;align=center;verticalAlign=middle;resizable=0;points=[];autosize=1;strokeColor=none;fillColor=none;" parent="1" vertex="1">
          <mxGeometry x="405.5" y="272" width="25" height="26" as="geometry" />
        </mxCell>
        <mxCell id="8cU8IfGOEaAC18SAXIAc-68" value="通过 Calendar 来排除一些时间节点" style="text;html=1;align=center;verticalAlign=middle;resizable=0;points=[];autosize=1;strokeColor=none;fillColor=none;" parent="1" vertex="1">
          <mxGeometry x="535" y="224" width="205" height="26" as="geometry" />
        </mxCell>
        <mxCell id="8cU8IfGOEaAC18SAXIAc-77" style="edgeStyle=orthogonalEdgeStyle;rounded=0;orthogonalLoop=1;jettySize=auto;html=1;" parent="1" source="8cU8IfGOEaAC18SAXIAc-70" target="8cU8IfGOEaAC18SAXIAc-15" edge="1">
          <mxGeometry relative="1" as="geometry">
            <Array as="points">
              <mxPoint x="305.5" y="587.5" />
            </Array>
          </mxGeometry>
        </mxCell>
        <mxCell id="8cU8IfGOEaAC18SAXIAc-70" value="JobDetail：描述了任务的一些信息，比如：名字" style="rounded=1;whiteSpace=wrap;html=1;" parent="1" vertex="1">
          <mxGeometry x="182.5" y="287" width="155" height="55.5" as="geometry" />
        </mxCell>
        <mxCell id="8cU8IfGOEaAC18SAXIAc-75" style="edgeStyle=orthogonalEdgeStyle;rounded=0;orthogonalLoop=1;jettySize=auto;html=1;entryX=0.5;entryY=1;entryDx=0;entryDy=0;" parent="1" source="8cU8IfGOEaAC18SAXIAc-71" edge="1">
          <mxGeometry relative="1" as="geometry">
            <mxPoint x="91.5" y="341.5" as="targetPoint" />
          </mxGeometry>
        </mxCell>
        <mxCell id="8cU8IfGOEaAC18SAXIAc-76" style="edgeStyle=orthogonalEdgeStyle;rounded=0;orthogonalLoop=1;jettySize=auto;html=1;" parent="1" source="8cU8IfGOEaAC18SAXIAc-71" target="8cU8IfGOEaAC18SAXIAc-70" edge="1">
          <mxGeometry relative="1" as="geometry" />
        </mxCell>
        <mxCell id="8cU8IfGOEaAC18SAXIAc-97" style="edgeStyle=orthogonalEdgeStyle;rounded=0;orthogonalLoop=1;jettySize=auto;html=1;" parent="1" source="8cU8IfGOEaAC18SAXIAc-71" edge="1">
          <mxGeometry relative="1" as="geometry">
            <mxPoint x="539" y="538" as="targetPoint" />
            <Array as="points">
              <mxPoint x="172" y="538" />
              <mxPoint x="514" y="538" />
            </Array>
          </mxGeometry>
        </mxCell>
        <mxCell id="8cU8IfGOEaAC18SAXIAc-71" value="ReallyJob" style="rounded=1;whiteSpace=wrap;html=1;" parent="1" vertex="1">
          <mxGeometry x="111.5" y="418.5" width="120" height="60" as="geometry" />
        </mxCell>
        <mxCell id="8cU8IfGOEaAC18SAXIAc-78" value="注册" style="text;html=1;align=center;verticalAlign=middle;resizable=0;points=[];autosize=1;strokeColor=none;fillColor=none;" parent="1" vertex="1">
          <mxGeometry x="241.5" y="552.5" width="42" height="26" as="geometry" />
        </mxCell>
        <mxCell id="8cU8IfGOEaAC18SAXIAc-80" value="&lt;span style=&quot;color: rgb(51, 51, 51); font-family: &amp;quot;pingfang SC&amp;quot;, &amp;quot;helvetica neue&amp;quot;, arial, &amp;quot;hiragino sans gb&amp;quot;, &amp;quot;microsoft yahei ui&amp;quot;, &amp;quot;microsoft yahei&amp;quot;, simsun, sans-serif; text-align: left; white-space-collapse: preserve; background-color: rgb(255, 255, 255);&quot;&gt;&lt;font style=&quot;font-size: 12px;&quot;&gt;JobDataMap：保存 Job 运行时的各种信息&lt;/font&gt;&lt;/span&gt;" style="rounded=1;whiteSpace=wrap;html=1;" parent="1" vertex="1">
          <mxGeometry x="82" y="213" width="179" height="56" as="geometry" />
        </mxCell>
        <mxCell id="8cU8IfGOEaAC18SAXIAc-91" style="edgeStyle=orthogonalEdgeStyle;rounded=0;orthogonalLoop=1;jettySize=auto;html=1;" parent="1" source="8cU8IfGOEaAC18SAXIAc-86" target="8cU8IfGOEaAC18SAXIAc-89" edge="1">
          <mxGeometry relative="1" as="geometry" />
        </mxCell>
        <mxCell id="8cU8IfGOEaAC18SAXIAc-86" value="&lt;span style=&quot;text-wrap: nowrap;&quot;&gt;存储方式&lt;/span&gt;" style="rounded=1;whiteSpace=wrap;html=1;" parent="1" vertex="1">
          <mxGeometry x="933" y="68" width="120" height="60" as="geometry" />
        </mxCell>
        <mxCell id="8cU8IfGOEaAC18SAXIAc-87" value="&lt;font style=&quot;font-size: 12px;&quot;&gt;内存存储：&lt;span style=&quot;color: rgb(51, 51, 51); font-family: &amp;quot;pingfang SC&amp;quot;, &amp;quot;helvetica neue&amp;quot;, arial, &amp;quot;hiragino sans gb&amp;quot;, &amp;quot;microsoft yahei ui&amp;quot;, &amp;quot;microsoft yahei&amp;quot;, simsun, sans-serif; text-align: start; white-space-collapse: preserve; background-color: rgb(255, 255, 255);&quot;&gt;RAMJobStore&lt;/span&gt;&lt;/font&gt;" style="rounded=1;whiteSpace=wrap;html=1;" parent="1" vertex="1">
          <mxGeometry x="843" y="164" width="120" height="60" as="geometry" />
        </mxCell>
        <mxCell id="8cU8IfGOEaAC18SAXIAc-89" value="数据库存储：&lt;div&gt;LocalDataSourceJobStore&lt;/div&gt;" style="rounded=1;whiteSpace=wrap;html=1;" parent="1" vertex="1">
          <mxGeometry x="1005" y="168.5" width="156" height="51" as="geometry" />
        </mxCell>
        <mxCell id="8cU8IfGOEaAC18SAXIAc-90" style="edgeStyle=orthogonalEdgeStyle;rounded=0;orthogonalLoop=1;jettySize=auto;html=1;entryX=0.656;entryY=0.028;entryDx=0;entryDy=0;entryPerimeter=0;" parent="1" source="8cU8IfGOEaAC18SAXIAc-86" target="8cU8IfGOEaAC18SAXIAc-87" edge="1">
          <mxGeometry relative="1" as="geometry" />
        </mxCell>
        <mxCell id="8cU8IfGOEaAC18SAXIAc-95" value="misfire：如果 schedule 关闭了或者是 Quartz 线程中没有可用线程来执行 Job，会触发 misfire 机制" style="whiteSpace=wrap;html=1;rounded=1;" parent="1" vertex="1">
          <mxGeometry x="684" y="277.12" width="218" height="120.75" as="geometry" />
        </mxCell>
        <mxCell id="8cU8IfGOEaAC18SAXIAc-98" value="状态作业：实现 StatefulJob 接口，关系着 JobDataMap 的改变" style="rounded=1;whiteSpace=wrap;html=1;" parent="1" vertex="1">
          <mxGeometry x="539" y="506" width="177" height="54" as="geometry" />
        </mxCell>
        <mxCell id="8cU8IfGOEaAC18SAXIAc-101" value="" style="edgeStyle=orthogonalEdgeStyle;rounded=0;orthogonalLoop=1;jettySize=auto;html=1;" parent="1" source="8cU8IfGOEaAC18SAXIAc-99" target="8cU8IfGOEaAC18SAXIAc-100" edge="1">
          <mxGeometry relative="1" as="geometry" />
        </mxCell>
        <mxCell id="8cU8IfGOEaAC18SAXIAc-99" value="JobListener：任务执行时触发" style="rounded=1;whiteSpace=wrap;html=1;" parent="1" vertex="1">
          <mxGeometry x="736" y="438" width="120" height="60" as="geometry" />
        </mxCell>
        <mxCell id="8cU8IfGOEaAC18SAXIAc-100" value="通过 scheduler.getListenerManager().addJobListener() 方法为任务添加监听器。" style="whiteSpace=wrap;html=1;rounded=1;" parent="1" vertex="1">
          <mxGeometry x="908" y="410" width="269" height="116" as="geometry" />
        </mxCell>
        <mxCell id="8cU8IfGOEaAC18SAXIAc-103" value="定时器启动流程" style="text;html=1;align=center;verticalAlign=middle;resizable=0;points=[];autosize=1;strokeColor=none;fillColor=none;" parent="1" vertex="1">
          <mxGeometry x="835" y="588" width="102" height="26" as="geometry" />
        </mxCell>
        <mxCell id="96SZYwyoLDsNzqyxZzud-1" value="定时器启动流程：" style="text;html=1;align=center;verticalAlign=middle;resizable=0;points=[];autosize=1;strokeColor=none;fillColor=none;" vertex="1" parent="1">
          <mxGeometry x="14.5" y="1266" width="114" height="26" as="geometry" />
        </mxCell>
        <mxCell id="96SZYwyoLDsNzqyxZzud-2" value="SpringContext" style="shape=umlLifeline;perimeter=lifelinePerimeter;whiteSpace=wrap;html=1;container=1;dropTarget=0;collapsible=0;recursiveResize=0;outlineConnect=0;portConstraint=eastwest;newEdgeStyle={&quot;curved&quot;:0,&quot;rounded&quot;:0};" vertex="1" parent="1">
          <mxGeometry x="46" y="1323" width="100" height="417" as="geometry" />
        </mxCell>
        <mxCell id="96SZYwyoLDsNzqyxZzud-3" value="ScheduleFactoryBean" style="shape=umlLifeline;perimeter=lifelinePerimeter;whiteSpace=wrap;html=1;container=1;dropTarget=0;collapsible=0;recursiveResize=0;outlineConnect=0;portConstraint=eastwest;newEdgeStyle={&quot;curved&quot;:0,&quot;rounded&quot;:0};" vertex="1" parent="1">
          <mxGeometry x="197" y="1323" width="154.5" height="409" as="geometry" />
        </mxCell>
        <mxCell id="96SZYwyoLDsNzqyxZzud-13" style="edgeStyle=orthogonalEdgeStyle;rounded=0;orthogonalLoop=1;jettySize=auto;html=1;curved=0;" edge="1" parent="96SZYwyoLDsNzqyxZzud-3" source="96SZYwyoLDsNzqyxZzud-8" target="96SZYwyoLDsNzqyxZzud-11">
          <mxGeometry relative="1" as="geometry" />
        </mxCell>
        <mxCell id="96SZYwyoLDsNzqyxZzud-8" value="" style="html=1;points=[[0,0,0,0,5],[0,1,0,0,-5],[1,0,0,0,5],[1,1,0,0,-5]];perimeter=orthogonalPerimeter;outlineConnect=0;targetShapes=umlLifeline;portConstraint=eastwest;newEdgeStyle={&quot;curved&quot;:0,&quot;rounded&quot;:0};" vertex="1" parent="96SZYwyoLDsNzqyxZzud-3">
          <mxGeometry x="72.25" y="73" width="10" height="332" as="geometry" />
        </mxCell>
        <mxCell id="96SZYwyoLDsNzqyxZzud-11" value="" style="html=1;points=[[0,0,0,0,5],[0,1,0,0,-5],[1,0,0,0,5],[1,1,0,0,-5]];perimeter=orthogonalPerimeter;outlineConnect=0;targetShapes=umlLifeline;portConstraint=eastwest;newEdgeStyle={&quot;curved&quot;:0,&quot;rounded&quot;:0};" vertex="1" parent="96SZYwyoLDsNzqyxZzud-3">
          <mxGeometry x="76" y="138" width="10" height="42" as="geometry" />
        </mxCell>
        <mxCell id="96SZYwyoLDsNzqyxZzud-34" value="" style="html=1;points=[[0,0,0,0,5],[0,1,0,0,-5],[1,0,0,0,5],[1,1,0,0,-5]];perimeter=orthogonalPerimeter;outlineConnect=0;targetShapes=umlLifeline;portConstraint=eastwest;newEdgeStyle={&quot;curved&quot;:0,&quot;rounded&quot;:0};" vertex="1" parent="96SZYwyoLDsNzqyxZzud-3">
          <mxGeometry x="76" y="360" width="10" height="40" as="geometry" />
        </mxCell>
        <mxCell id="96SZYwyoLDsNzqyxZzud-35" value="9. startScheduler()" style="html=1;align=left;spacingLeft=2;endArrow=block;rounded=0;edgeStyle=orthogonalEdgeStyle;curved=0;rounded=0;" edge="1" target="96SZYwyoLDsNzqyxZzud-34" parent="96SZYwyoLDsNzqyxZzud-3">
          <mxGeometry relative="1" as="geometry">
            <mxPoint x="81" y="340" as="sourcePoint" />
            <Array as="points">
              <mxPoint x="111" y="370" />
            </Array>
          </mxGeometry>
        </mxCell>
        <mxCell id="96SZYwyoLDsNzqyxZzud-4" value="StdScheduleFactory" style="shape=umlLifeline;perimeter=lifelinePerimeter;whiteSpace=wrap;html=1;container=1;dropTarget=0;collapsible=0;recursiveResize=0;outlineConnect=0;portConstraint=eastwest;newEdgeStyle={&quot;curved&quot;:0,&quot;rounded&quot;:0};" vertex="1" parent="1">
          <mxGeometry x="393" y="1323" width="154.5" height="300" as="geometry" />
        </mxCell>
        <mxCell id="96SZYwyoLDsNzqyxZzud-10" value="" style="html=1;points=[[0,0,0,0,5],[0,1,0,0,-5],[1,0,0,0,5],[1,1,0,0,-5]];perimeter=orthogonalPerimeter;outlineConnect=0;targetShapes=umlLifeline;portConstraint=eastwest;newEdgeStyle={&quot;curved&quot;:0,&quot;rounded&quot;:0};" vertex="1" parent="96SZYwyoLDsNzqyxZzud-4">
          <mxGeometry x="74" y="92" width="8" height="39" as="geometry" />
        </mxCell>
        <mxCell id="96SZYwyoLDsNzqyxZzud-19" style="edgeStyle=orthogonalEdgeStyle;rounded=0;orthogonalLoop=1;jettySize=auto;html=1;curved=0;" edge="1" parent="96SZYwyoLDsNzqyxZzud-4" source="96SZYwyoLDsNzqyxZzud-17" target="96SZYwyoLDsNzqyxZzud-18">
          <mxGeometry relative="1" as="geometry" />
        </mxCell>
        <mxCell id="96SZYwyoLDsNzqyxZzud-17" value="" style="html=1;points=[[0,0,0,0,5],[0,1,0,0,-5],[1,0,0,0,5],[1,1,0,0,-5]];perimeter=orthogonalPerimeter;outlineConnect=0;targetShapes=umlLifeline;portConstraint=eastwest;newEdgeStyle={&quot;curved&quot;:0,&quot;rounded&quot;:0};" vertex="1" parent="96SZYwyoLDsNzqyxZzud-4">
          <mxGeometry x="74" y="142" width="10" height="126" as="geometry" />
        </mxCell>
        <mxCell id="96SZYwyoLDsNzqyxZzud-18" value="" style="html=1;points=[[0,0,0,0,5],[0,1,0,0,-5],[1,0,0,0,5],[1,1,0,0,-5]];perimeter=orthogonalPerimeter;outlineConnect=0;targetShapes=umlLifeline;portConstraint=eastwest;newEdgeStyle={&quot;curved&quot;:0,&quot;rounded&quot;:0};" vertex="1" parent="96SZYwyoLDsNzqyxZzud-4">
          <mxGeometry x="78" y="203" width="10" height="72" as="geometry" />
        </mxCell>
        <mxCell id="96SZYwyoLDsNzqyxZzud-5" value="QuartzScheduler" style="shape=umlLifeline;perimeter=lifelinePerimeter;whiteSpace=wrap;html=1;container=1;dropTarget=0;collapsible=0;recursiveResize=0;outlineConnect=0;portConstraint=eastwest;newEdgeStyle={&quot;curved&quot;:0,&quot;rounded&quot;:0};" vertex="1" parent="1">
          <mxGeometry x="581.5" y="1323" width="154.5" height="419" as="geometry" />
        </mxCell>
        <mxCell id="96SZYwyoLDsNzqyxZzud-21" value="" style="html=1;points=[[0,0,0,0,5],[0,1,0,0,-5],[1,0,0,0,5],[1,1,0,0,-5]];perimeter=orthogonalPerimeter;outlineConnect=0;targetShapes=umlLifeline;portConstraint=eastwest;newEdgeStyle={&quot;curved&quot;:0,&quot;rounded&quot;:0};" vertex="1" parent="96SZYwyoLDsNzqyxZzud-5">
          <mxGeometry x="72.25" y="252" width="10" height="25" as="geometry" />
        </mxCell>
        <mxCell id="96SZYwyoLDsNzqyxZzud-6" value="QuartzSchedulerThread" style="shape=umlLifeline;perimeter=lifelinePerimeter;whiteSpace=wrap;html=1;container=1;dropTarget=0;collapsible=0;recursiveResize=0;outlineConnect=0;portConstraint=eastwest;newEdgeStyle={&quot;curved&quot;:0,&quot;rounded&quot;:0};" vertex="1" parent="1">
          <mxGeometry x="758" y="1323" width="154.5" height="489" as="geometry" />
        </mxCell>
        <mxCell id="96SZYwyoLDsNzqyxZzud-27" value="" style="html=1;points=[[0,0,0,0,5],[0,1,0,0,-5],[1,0,0,0,5],[1,1,0,0,-5]];perimeter=orthogonalPerimeter;outlineConnect=0;targetShapes=umlLifeline;portConstraint=eastwest;newEdgeStyle={&quot;curved&quot;:0,&quot;rounded&quot;:0};" vertex="1" parent="96SZYwyoLDsNzqyxZzud-6">
          <mxGeometry x="79" y="288" width="10" height="40" as="geometry" />
        </mxCell>
        <mxCell id="96SZYwyoLDsNzqyxZzud-28" value="8 run()" style="html=1;align=left;spacingLeft=2;endArrow=block;rounded=0;edgeStyle=orthogonalEdgeStyle;curved=0;rounded=0;" edge="1" target="96SZYwyoLDsNzqyxZzud-27" parent="96SZYwyoLDsNzqyxZzud-6">
          <mxGeometry x="0.1765" y="14" relative="1" as="geometry">
            <mxPoint x="84" y="268" as="sourcePoint" />
            <Array as="points">
              <mxPoint x="114" y="298" />
            </Array>
            <mxPoint as="offset" />
          </mxGeometry>
        </mxCell>
        <mxCell id="96SZYwyoLDsNzqyxZzud-38" value="" style="html=1;points=[[0,0,0,0,5],[0,1,0,0,-5],[1,0,0,0,5],[1,1,0,0,-5]];perimeter=orthogonalPerimeter;outlineConnect=0;targetShapes=umlLifeline;portConstraint=eastwest;newEdgeStyle={&quot;curved&quot;:0,&quot;rounded&quot;:0};" vertex="1" parent="96SZYwyoLDsNzqyxZzud-6">
          <mxGeometry x="72.25" y="403" width="10" height="36" as="geometry" />
        </mxCell>
        <mxCell id="96SZYwyoLDsNzqyxZzud-7" value="1. afterPropertiesSet()" style="html=1;verticalAlign=bottom;endArrow=block;curved=0;rounded=0;" edge="1" parent="1" target="96SZYwyoLDsNzqyxZzud-3">
          <mxGeometry x="-0.0043" width="80" relative="1" as="geometry">
            <mxPoint x="99" y="1407" as="sourcePoint" />
            <mxPoint x="179" y="1407" as="targetPoint" />
            <mxPoint as="offset" />
          </mxGeometry>
        </mxCell>
        <mxCell id="96SZYwyoLDsNzqyxZzud-9" value="2. initialize()" style="html=1;verticalAlign=bottom;endArrow=block;curved=0;rounded=0;" edge="1" parent="1" target="96SZYwyoLDsNzqyxZzud-4">
          <mxGeometry width="80" relative="1" as="geometry">
            <mxPoint x="280" y="1430" as="sourcePoint" />
            <mxPoint x="360" y="1430" as="targetPoint" />
          </mxGeometry>
        </mxCell>
        <mxCell id="96SZYwyoLDsNzqyxZzud-15" value="3. createScheduler()" style="text;html=1;align=center;verticalAlign=middle;resizable=0;points=[];autosize=1;strokeColor=none;fillColor=none;" vertex="1" parent="1">
          <mxGeometry x="287" y="1509" width="127" height="26" as="geometry" />
        </mxCell>
        <mxCell id="96SZYwyoLDsNzqyxZzud-16" value="4. getScheduler()" style="html=1;verticalAlign=bottom;endArrow=block;curved=0;rounded=0;" edge="1" parent="1" target="96SZYwyoLDsNzqyxZzud-4">
          <mxGeometry width="80" relative="1" as="geometry">
            <mxPoint x="283.5" y="1470" as="sourcePoint" />
            <mxPoint x="363.5" y="1470" as="targetPoint" />
          </mxGeometry>
        </mxCell>
        <mxCell id="96SZYwyoLDsNzqyxZzud-20" value="5. instantiatte()" style="text;html=1;align=center;verticalAlign=middle;resizable=0;points=[];autosize=1;strokeColor=none;fillColor=none;" vertex="1" parent="1">
          <mxGeometry x="490.5" y="1503" width="97" height="26" as="geometry" />
        </mxCell>
        <mxCell id="96SZYwyoLDsNzqyxZzud-22" value="6. create" style="html=1;verticalAlign=bottom;startArrow=oval;endArrow=block;startSize=8;curved=0;rounded=0;entryX=0;entryY=0;entryDx=0;entryDy=5;" edge="1" target="96SZYwyoLDsNzqyxZzud-21" parent="1">
          <mxGeometry relative="1" as="geometry">
            <mxPoint x="485" y="1581" as="sourcePoint" />
          </mxGeometry>
        </mxCell>
        <mxCell id="96SZYwyoLDsNzqyxZzud-23" value="" style="html=1;points=[[0,0,0,0,5],[0,1,0,0,-5],[1,0,0,0,5],[1,1,0,0,-5]];perimeter=orthogonalPerimeter;outlineConnect=0;targetShapes=umlLifeline;portConstraint=eastwest;newEdgeStyle={&quot;curved&quot;:0,&quot;rounded&quot;:0};" vertex="1" parent="1">
          <mxGeometry x="830" y="1581" width="10.5" height="94" as="geometry" />
        </mxCell>
        <mxCell id="96SZYwyoLDsNzqyxZzud-24" value="7. create" style="html=1;verticalAlign=bottom;startArrow=oval;endArrow=block;startSize=8;curved=0;rounded=0;entryX=0;entryY=0;entryDx=0;entryDy=5;" edge="1" target="96SZYwyoLDsNzqyxZzud-23" parent="1">
          <mxGeometry relative="1" as="geometry">
            <mxPoint x="667.5" y="1586" as="sourcePoint" />
          </mxGeometry>
        </mxCell>
        <mxCell id="96SZYwyoLDsNzqyxZzud-29" value="Quartz 核心，所有的Job调度和触发都有该线程执行" style="text;html=1;align=center;verticalAlign=middle;resizable=0;points=[];autosize=1;strokeColor=none;fillColor=none;" vertex="1" parent="1">
          <mxGeometry x="764" y="1274" width="293" height="26" as="geometry" />
        </mxCell>
        <mxCell id="96SZYwyoLDsNzqyxZzud-30" value="" style="endArrow=none;dashed=1;html=1;dashPattern=1 3;strokeWidth=2;rounded=0;" edge="1" parent="1">
          <mxGeometry width="50" height="50" relative="1" as="geometry">
            <mxPoint x="908" y="1593" as="sourcePoint" />
            <mxPoint x="958" y="1543" as="targetPoint" />
          </mxGeometry>
        </mxCell>
        <mxCell id="96SZYwyoLDsNzqyxZzud-31" value="调度线程并没有启动，在等待启动命令" style="text;html=1;align=center;verticalAlign=middle;resizable=0;points=[];autosize=1;strokeColor=none;fillColor=none;" vertex="1" parent="1">
          <mxGeometry x="859" y="1516" width="222" height="26" as="geometry" />
        </mxCell>
        <mxCell id="96SZYwyoLDsNzqyxZzud-36" value="" style="html=1;points=[[0,0,0,0,5],[0,1,0,0,-5],[1,0,0,0,5],[1,1,0,0,-5]];perimeter=orthogonalPerimeter;outlineConnect=0;targetShapes=umlLifeline;portConstraint=eastwest;newEdgeStyle={&quot;curved&quot;:0,&quot;rounded&quot;:0};" vertex="1" parent="1">
          <mxGeometry x="653.25" y="1709" width="11" height="36" as="geometry" />
        </mxCell>
        <mxCell id="96SZYwyoLDsNzqyxZzud-37" value="10. start()" style="html=1;verticalAlign=bottom;startArrow=oval;endArrow=block;startSize=8;curved=0;rounded=0;entryX=0;entryY=0;entryDx=0;entryDy=5;" edge="1" target="96SZYwyoLDsNzqyxZzud-36" parent="1">
          <mxGeometry relative="1" as="geometry">
            <mxPoint x="287" y="1713" as="sourcePoint" />
          </mxGeometry>
        </mxCell>
        <mxCell id="96SZYwyoLDsNzqyxZzud-39" value="11. togglePause()" style="html=1;verticalAlign=bottom;startArrow=oval;endArrow=block;startSize=8;curved=0;rounded=0;entryX=0;entryY=0;entryDx=0;entryDy=5;" edge="1" target="96SZYwyoLDsNzqyxZzud-38" parent="1">
          <mxGeometry relative="1" as="geometry">
            <mxPoint x="667.5" y="1731" as="sourcePoint" />
          </mxGeometry>
        </mxCell>
        <mxCell id="96SZYwyoLDsNzqyxZzud-41" value="" style="endArrow=none;dashed=1;html=1;dashPattern=1 3;strokeWidth=2;rounded=0;" edge="1" parent="1">
          <mxGeometry width="50" height="50" relative="1" as="geometry">
            <mxPoint x="843" y="1752" as="sourcePoint" />
            <mxPoint x="893" y="1702" as="targetPoint" />
          </mxGeometry>
        </mxCell>
        <mxCell id="96SZYwyoLDsNzqyxZzud-42" value="暂停标志设置为false，开启线程" style="text;html=1;align=center;verticalAlign=middle;resizable=0;points=[];autosize=1;strokeColor=none;fillColor=none;" vertex="1" parent="1">
          <mxGeometry x="870" y="1677" width="187" height="26" as="geometry" />
        </mxCell>
        <mxCell id="96SZYwyoLDsNzqyxZzud-43" value="" style="endArrow=none;dashed=1;html=1;dashPattern=1 3;strokeWidth=2;rounded=0;" edge="1" parent="1">
          <mxGeometry width="50" height="50" relative="1" as="geometry">
            <mxPoint x="408.5" y="1767" as="sourcePoint" />
            <mxPoint x="458.5" y="1717" as="targetPoint" />
          </mxGeometry>
        </mxCell>
        <mxCell id="96SZYwyoLDsNzqyxZzud-44" value="1. 初始化线程池&lt;div&gt;2. 初始化 JobStore&lt;/div&gt;&lt;div&gt;3. 装配 SchedulePlugin&lt;/div&gt;&lt;div&gt;4. 装配 JobListener 等监听器&lt;/div&gt;" style="shape=note;whiteSpace=wrap;html=1;backgroundOutline=1;darkOpacity=0.05;" vertex="1" parent="1">
          <mxGeometry x="326.75" y="1776" width="182.5" height="97" as="geometry" />
        </mxCell>
        <mxCell id="96SZYwyoLDsNzqyxZzud-45" value="项目实战地址：https://github.com/moliwqf/springtask_logback_demo" style="rounded=0;whiteSpace=wrap;html=1;" vertex="1" parent="1">
          <mxGeometry x="716" y="860" width="336" height="63" as="geometry" />
        </mxCell>
      </root>
    </mxGraphModel>
  </diagram>
</mxfile>
